# xmcd CD database file
#
# Track frame offsets:
#	151
#	16025
#	36623
#	51986
#	70637
#	86516
#	100344
#	115531
#	133034
#	149195
#	167923
#	183500
#
# Disc length: 2705 seconds
#
# Revision: 0
# Processed by: cddbd v1.5.1PL0 Copyright (c) Steve Scherf et al.
# Submitted via: CDex 1.51
#
DISCID=aa0a8f0c
DTITLE=Fausti - Speck Takel
DYEAR=1999
DGENRE=Country
TTITLE0=Pompje Pilatus
TTITLE1=Moss am Bic
TTITLE2=0190 666 666
TTITLE3=Feier am Stréi
TTITLE4=Pëppi komm
TTITLE5=He Helo
TTITLE6=Kleng Kniwwlereien
TTITLE7=Haschisch am Harem
TTITLE8=Café olé
TTITLE9=Mat Rousen
TTITLE10=Am Mo
TTITLE11=Sankt Valentin
EXTD=YEAR: 1999
EXTT0=
EXTT1=
EXTT2=
EXTT3=
EXTT4=
EXTT5=
EXTT6=
EXTT7=
EXTT8=
EXTT9=
EXTT10=
EXTT11=
PLAYORDER=
